<?xml version="1.0" encoding="UTF-8" standalone="no"?>
<!-- Created with Inkscape (http://www.inkscape.org/) -->

<svg
   version="1.1"
   id="svg8302"
   width="826.104"
   height="250"
   viewBox="0 0 826.10399 250"
   sodipodi:docname="logo.svg"
   xmlns:inkscape="http://www.inkscape.org/namespaces/inkscape"
   xmlns:sodipodi="http://sodipodi.sourceforge.net/DTD/sodipodi-0.dtd"
   xmlns="http://www.w3.org/2000/svg"
   xmlns:svg="http://www.w3.org/2000/svg">
  <defs
     id="defs8306">
    <clipPath
       clipPathUnits="userSpaceOnUse"
       id="clipPath8762">
      <path
         d="M 0,1080 H 1413.02 V 0 H 0 Z"
         id="path8760" />
    </clipPath>
    <linearGradient
       x1="0"
       y1="0"
       x2="1"
       y2="0"
       gradientUnits="userSpaceOnUse"
       gradientTransform="matrix(259.40723,0,0,-259.40723,355.91992,539.44092)"
       spreadMethod="pad"
       id="linearGradient8784">
      <stop
         style="stop-opacity:1;stop-color:#ef2f21"
         offset="0"
         id="stop8780" />
      <stop
         style="stop-opacity:1;stop-color:#f49720"
         offset="1"
         id="stop8782" />
    </linearGradient>
  </defs>
  <sodipodi:namedview
     id="namedview8304"
     pagecolor="#505050"
     bordercolor="#ffffff"
     borderopacity="1"
     inkscape:showpageshadow="0"
     inkscape:pageopacity="0"
     inkscape:pagecheckerboard="1"
     inkscape:deskcolor="#505050"
     showgrid="false" />
  <g
     id="g8734"
     inkscape:groupmode="layer"
     inkscape:label="Page 5"
     transform="matrix(1.3333333,0,0,-1.3333333,-474.55995,861.46454)">
    <g
       id="g32573"
       transform="matrix(0.88361539,0,0,0.88361539,41.42361,75.19591)">
      <g
         id="g8756">
        <g
           id="g8758"
           clip-path="url(#clipPath8762)">
          <g
             id="g8764"
             transform="translate(945.1191,523.3584)">
            <path
               d="m 0,0 -4.166,-1.553 c -7.551,-2.511 -15.359,-3.768 -23.432,-3.768 -8.869,0 -13.302,5.292 -13.302,15.882 0,5.03 1.225,8.834 3.671,11.418 2.454,2.583 6.256,4.137 11.417,4.667 L 0,29.026 Z m 18.467,50.272 c 0,11.251 -2.651,19.49 -7.943,24.724 -5.292,5.225 -13.768,7.837 -25.411,7.837 -12.05,0 -25.086,-1.653 -39.116,-4.963 l 0.595,-13.501 c 14.558,1.588 27.4,2.381 38.521,2.381 4.891,0 8.604,-1.287 11.12,-3.868 C -1.255,60.296 0,56.093 0,50.272 V 42.527 L -28.191,39.95 c -10.991,-1.067 -18.997,-3.876 -24.026,-8.443 -5.031,-4.564 -7.541,-11.749 -7.541,-21.542 0,-9.93 2.444,-17.543 7.346,-22.835 4.889,-5.292 12.039,-7.94 21.439,-7.94 10.037,0 25.254,5.45 35.467,9.684 l 1.575,-7.5 12.382,0.014 z m 90.543,12.31 c -1.987,7.012 -5.364,12.143 -10.125,15.386 -4.772,3.247 -11.389,4.865 -19.864,4.865 -4.896,0 -9.658,-0.597 -14.291,-1.786 -4.636,-1.192 -9.796,-3.115 -15.488,-5.755 V 122.74 H 30.778 V -18.629 h 18.464 v 76.244 c 0,2.145 1.352,4.057 3.377,4.77 7.279,2.512 14.297,3.766 21.049,3.766 5.422,0 9.561,-0.985 12.404,-2.976 2.846,-1.982 4.799,-5.232 5.86,-9.725 1.058,-4.502 1.588,-11.055 1.588,-19.658 v -52.421 h 18.466 v 52.814 c 0,11.919 -0.994,21.378 -2.976,28.397 M -71.256,62.385 c -1.98,7.011 -5.291,12.173 -9.93,15.483 -4.632,3.309 -11.05,4.965 -19.257,4.965 -6.491,0 -12.877,-0.93 -19.162,-2.78 -6.289,-1.852 -12.081,-4.239 -17.374,-7.15 -2.515,3.31 -5.957,5.791 -10.327,7.447 -4.362,1.656 -9.131,2.483 -14.292,2.483 -4.767,0 -9.398,-0.727 -13.898,-2.186 -4.502,-1.458 -9.271,-3.636 -14.294,-6.547 v 6.547 h -18.269 v -99.276 h 18.465 v 78.626 l 3.18,1.59 c 2.643,1.189 5.924,2.249 9.829,3.179 3.897,0.921 7.708,1.385 11.409,1.385 5.031,0 8.84,-1.021 11.418,-3.075 2.584,-2.056 4.333,-5.43 5.264,-10.127 0.928,-4.696 1.392,-11.483 1.392,-20.353 v -51.225 h 18.664 v 51.624 c 0,12.311 -0.73,21.312 -2.187,27.002 l 3.57,1.59 c 3.051,1.32 6.557,2.417 10.528,3.28 3.967,0.857 7.808,1.284 11.518,1.284 5.029,0 8.835,-1.021 11.417,-3.075 2.578,-2.056 4.369,-5.358 5.357,-9.924 0.995,-4.567 1.497,-11.018 1.497,-19.36 v -52.421 h 18.457 v 52.814 c 0,11.782 -0.989,21.182 -2.975,28.2 m -211.038,-25.46 h 47.603 v 15.9 c 0,9.242 -4.623,13.897 -13.866,13.961 h -19.873 c -9.244,0 -13.864,-4.653 -13.864,-13.961 z M -299.164,7.161 V 56.8 c 0,7.43 2.438,13.588 7.318,18.469 4.881,4.879 11.036,7.318 18.471,7.318 h 29.764 c 7.431,0 13.604,-2.439 18.517,-7.318 4.911,-4.881 7.368,-11.039 7.368,-18.469 V 21.123 h -64.568 v -9.987 c 0,-9.243 4.62,-13.864 13.864,-13.864 h 46.729 v -15.901 h -51.674 c -7.435,0 -13.59,2.442 -18.471,7.319 -4.88,4.881 -7.318,11.039 -7.318,18.471"
               style="fill:#413e3f;fill-opacity:1;fill-rule:nonzero;stroke:none"
               id="path8766" />
          </g>
        </g>
      </g>
      <g
         id="g8768">
        <g
           id="g8770">
          <g
             id="g8776">
            <g
               id="g8778">
              <path
                 d="m 459.043,644.264 -50.736,-25.01 -40.044,-44.335 -12.343,-53.73 31.67,-54.502 51.529,2.328 20.066,-35.113 32.126,28.624 47.804,5.135 23.283,33.869 45.496,17.771 7.433,57.974 -49.163,50.609 -61.977,17.096 z m -39.796,-27.211 41.434,20.425 38.358,0.609 -13.855,-37.81 c -2.866,-0.043 -5.422,-1.354 -7.136,-3.398 v 0 z m 72.333,-19.12 14.465,39.469 48.076,-13.263 -61.996,-26.722 c -0.174,0.178 -0.355,0.351 -0.545,0.516 m 67.886,21.093 -34.355,-86.854 c -0.031,10e-4 -0.062,0.003 -0.093,0.003 v 0 c -0.52,0 -1.028,-0.043 -1.523,-0.123 v 0 l -30.757,52.781 c 1.309,1.629 2.094,3.696 2.094,5.945 v 0 c 0,0.13 -0.004,0.256 -0.011,0.382 v 0 z m 6.885,-1.11 41.8,-43.03 -76.356,-44.338 z m -191.845,-46.249 36.87,40.823 28.726,-83.25 c -1.163,-0.979 -2.086,-2.228 -2.673,-3.655 v 0 l -73.607,-0.417 z m 72.037,-40.207 -27.016,78.294 56.311,-19.317 c 0.078,-2.155 0.869,-4.127 2.148,-5.686 v 0 l -30.349,-53.388 c -0.359,0.054 -0.724,0.086 -1.094,0.097 m 40.31,49.942 30.757,-52.781 c -0.622,-0.775 -1.123,-1.647 -1.481,-2.591 v 0 l -61.168,-0.345 c -0.358,0.837 -0.832,1.615 -1.402,2.311 v 0 l 30.351,53.389 c 0.463,-0.07 0.937,-0.106 1.42,-0.106 v 0 c 0.52,0 1.028,0.044 1.523,0.123 m 47.618,-59.65 c 0.031,0.302 0.049,0.611 0.049,0.922 v 0 c 0,0.513 -0.043,1.016 -0.122,1.509 v 0 l 72.665,42.194 -5.41,-42.203 -40.448,-15.799 z m -79.844,-4.199 c 0.222,0.421 0.414,0.864 0.571,1.32 v 0 l 60.97,0.345 c 0.364,-0.932 0.869,-1.793 1.493,-2.556 v 0 l -24.525,-42.936 z m -89.187,0.812 71.827,0.407 c 0.006,-0.017 0.011,-0.033 0.016,-0.048 v 0 l -47.892,-41.579 z m 165.985,-2.706 24.123,-12.07 -20.273,-29.489 -36.308,-3.901 24.608,43.083 c 0.47,-0.071 0.953,-0.108 1.443,-0.108 v 0 c 2.468,0 4.718,0.942 6.407,2.485 m -89.675,-2.078 c 1.332,-0.711 2.851,-1.114 4.465,-1.114 v 0 c 1.16,0 2.269,0.209 3.296,0.587 v 0 l 38.761,-44.111 -27.342,-24.364 -17.962,31.43 -46.935,-2.121 z"
                 style="fill:url(#linearGradient8784);stroke:none"
                 id="path8786" />
            </g>
          </g>
        </g>
      </g>
    </g>
  </g>
</svg>
