<?xml version="1.0" encoding="UTF-8" standalone="no"?>
<!-- Created with Inkscape (http://www.inkscape.org/) -->

<svg
   version="1.1"
   id="svg8302"
   width="826.104"
   height="250"
   viewBox="0 0 826.10399 250"
   sodipodi:docname="logo.svg"
   inkscape:version="1.2.2 (732a01da63, 2022-12-09, custom)"
   xmlns:inkscape="http://www.inkscape.org/namespaces/inkscape"
   xmlns:sodipodi="http://sodipodi.sourceforge.net/DTD/sodipodi-0.dtd"
   xmlns="http://www.w3.org/2000/svg"
   xmlns:svg="http://www.w3.org/2000/svg">
  <defs
     id="defs8306">
    <clipPath
       clipPathUnits="userSpaceOnUse"
       id="clipPath8762">
      <path
         d="M 0,1080 H 1413.02 V 0 H 0 Z"
         id="path8760" />
    </clipPath>
    <linearGradient
       x1="0"
       y1="0"
       x2="1"
       y2="0"
       gradientUnits="userSpaceOnUse"
       gradientTransform="matrix(259.40723,0,0,-259.40723,355.91992,539.44092)"
       spreadMethod="pad"
       id="linearGradient8784">
      <stop
         style="stop-opacity:1;stop-color:#ef2f21"
         offset="0"
         id="stop8780" />
      <stop
         style="stop-opacity:1;stop-color:#f49720"
         offset="1"
         id="stop8782" />
    </linearGradient>
  </defs>
  <sodipodi:namedview
     id="namedview8304"
     pagecolor="#505050"
     bordercolor="#ffffff"
     borderopacity="1"
     inkscape:showpageshadow="0"
     inkscape:pageopacity="0"
     inkscape:pagecheckerboard="1"
     inkscape:deskcolor="#505050"
     showgrid="false"
     inkscape:zoom="0.54956761"
     inkscape:cx="413.052"
     inkscape:cy="124.64345"
     inkscape:window-width="1360"
     inkscape:window-height="737"
     inkscape:window-x="0"
     inkscape:window-y="0"
     inkscape:window-maximized="1"
     inkscape:current-layer="g32573" />
  <g
     id="g8734"
     inkscape:groupmode="layer"
     inkscape:label="Page 5"
     transform="matrix(1.3333333,0,0,-1.3333333,-474.55995,861.46454)">
    <g
       id="g32573"
       transform="matrix(0.88361539,0,0,0.88361539,41.42361,75.19591)">
      <path
         id="text8754"
         style="font-variant:normal;font-weight:500;font-stretch:normal;font-size:53.482px;font-family:'TT Supermolot Neue Light';-inkscape-font-specification:TTSupermolotNeue-Medium;writing-mode:lr-tb;fill:#413e3f;fill-opacity:1;fill-rule:nonzero;stroke:none"
         d="M 5.6153274 -37.447423 L 5.6153274 0.00026864798 L 26.740928 0.00026864798 L 26.740928 -1.5928621 L 7.2071756 -1.5928621 L 7.2071756 -18.411085 L 21.648342 -18.411085 L 21.648342 -20.004215 L 7.2071756 -20.004215 L 7.2071756 -35.829425 L 26.218058 -35.829425 L 26.740928 -36.376494 L 26.740928 -37.447423 L 5.6153274 -37.447423 z M 176.11571 -37.447423 L 176.11571 0.00026864798 L 177.70755 0.00026864798 L 177.70755 -13.631692 L 191.36525 -13.631692 C 193.78516 -13.631692 195.72745 -14.371659 197.18985 -15.851466 C 198.65225 -17.331272 199.38258 -19.263638 199.38258 -21.648737 L 199.38258 -29.403853 C 199.38258 -31.841181 198.65225 -33.791777 197.18985 -35.254174 C 195.72745 -36.716571 193.78516 -37.447423 191.36525 -37.447423 L 176.11571 -37.447423 z M 177.70755 -35.829425 L 191.36525 -35.829425 C 193.34993 -35.829425 194.90792 -35.254355 196.03954 -34.105329 C 197.18856 -32.973713 197.76418 -31.405944 197.76418 -29.403853 L 197.76418 -21.648737 C 197.76418 -19.664056 197.19771 -18.097945 196.06609 -16.948919 C 194.93448 -15.817302 193.36734 -15.251348 191.36525 -15.251348 L 177.70755 -15.251348 L 177.70755 -35.829425 z M 276.60133 -35.829425 L 276.60133 -31.54571 L 278.21973 -31.54571 L 278.21973 -35.829425 L 276.60133 -35.829425 z M 313.34331 -35.829425 L 313.34331 -31.54571 L 314.96171 -31.54571 L 314.96171 -35.829425 L 313.34331 -35.829425 z M 333.23726 -35.829425 L 333.23726 -31.54571 L 334.85732 -31.54571 L 334.85732 -35.829425 L 333.23726 -35.829425 z M 360.6207 -35.829425 L 360.6207 -31.54571 L 362.2391 -31.54571 L 362.2391 -35.829425 L 360.6207 -35.829425 z M 75.505593 -35.567495 L 75.505593 -25.930795 L 64.563505 -25.930795 C 62.561414 -25.930795 60.898614 -25.269548 59.575493 -23.946427 C 58.252372 -22.640715 57.590247 -20.986769 57.590247 -18.984678 L 57.590247 -6.4236458 C 57.590247 -4.4215548 58.252372 -2.7601514 59.575493 -1.4370304 C 60.898614 -0.13131886 62.561414 0.52247073 64.563505 0.52247073 L 69.368928 0.52247073 C 70.152354 0.52247073 70.900989 0.40894826 71.614778 0.18262493 C 72.328567 -0.043698406 72.884223 -0.29643073 73.284641 -0.57498253 C 73.702469 -0.87094381 74.077616 -1.1932811 74.408397 -1.5414708 C 74.756586 -1.9070701 74.973692 -2.1672597 75.060739 -2.323945 C 75.147786 -2.4806304 75.208509 -2.5941529 75.243328 -2.6637908 L 75.505593 -2.6637908 L 75.792757 0.00026864798 L 77.124 0.00026864798 L 77.124 -35.567495 L 75.505593 -35.567495 z M 85.455059 -35.567495 L 85.455059 0.00026864798 L 87.075125 0.00026864798 L 87.075125 -35.567495 L 85.455059 -35.567495 z M 286.54747 -35.567495 L 286.54747 0.00026864798 L 299.13453 0.00026864798 C 301.11921 0.00026864798 302.77452 -0.65352094 304.09764 -1.9592325 C 305.42076 -3.2823535 306.08122 -4.9437568 306.08122 -6.9458479 L 306.08122 -19.533405 C 306.08122 -21.518086 305.42076 -23.172032 304.09764 -24.495153 C 302.79193 -25.818274 301.13662 -26.479521 299.13453 -26.479521 L 294.3042 -26.479521 C 293.52078 -26.479521 292.77214 -26.358541 292.05835 -26.114809 C 291.34456 -25.888485 290.7781 -25.626638 290.36027 -25.330677 C 289.95985 -25.052125 289.58637 -24.729788 289.23818 -24.364188 C 288.9074 -24.015999 288.69778 -23.763266 288.61073 -23.606581 C 288.52369 -23.449895 288.46296 -23.338031 288.42814 -23.268393 L 288.16754 -23.268393 L 288.16754 -35.567495 L 286.54747 -35.567495 z M 323.29111 -35.567495 L 323.29111 0.00026864798 L 324.90952 0.00026864798 L 324.90952 -35.567495 L 323.29111 -35.567495 z M 344.80513 -34.758496 L 344.2557 -25.930795 L 339.45194 -25.930795 L 339.45194 -24.337664 L 344.2557 -24.337664 L 344.2557 -6.9458479 C 344.2557 -4.9437568 344.91783 -3.2823535 346.24095 -1.9592325 C 347.56407 -0.65352094 349.22687 0.00026864798 351.22896 0.00026864798 L 354.96374 0.00026864798 L 354.96374 -1.5928621 L 351.22896 -1.5928621 C 349.60988 -1.5928621 348.31307 -2.0800967 347.33814 -3.055028 C 346.36321 -4.0473687 345.87577 -5.3441751 345.87577 -6.9458479 L 345.87577 -24.337664 L 352.82247 -24.337664 L 353.34368 -25.14832 L 353.34368 -25.930795 L 345.87577 -25.930795 L 345.87577 -34.758496 L 344.80513 -34.758496 z M 39.890689 -26.479521 C 39.107262 -26.479521 38.358628 -26.358541 37.644839 -26.114809 C 36.93105 -25.888485 36.364584 -25.626638 35.946757 -25.330677 C 35.546338 -25.052125 35.172851 -24.729788 34.824661 -24.364188 C 34.493881 -24.015999 34.284265 -23.763266 34.197218 -23.606581 C 34.11017 -23.449895 34.049447 -23.338031 34.014628 -23.268393 L 33.754023 -23.268393 L 33.491758 -25.930795 L 32.133957 -25.930795 L 32.133957 0.00026864798 L 33.754023 0.00026864798 L 33.754023 -18.724406 L 33.754023 -19.351048 C 33.788842 -19.786286 33.919437 -20.308323 34.145761 -20.917655 C 34.372084 -21.526987 34.66821 -22.118629 35.033809 -22.693142 C 35.416818 -23.285064 36.034857 -23.790529 36.887922 -24.208357 C 37.740987 -24.643594 38.741663 -24.861524 39.890689 -24.861524 L 44.173242 -24.861524 C 45.774915 -24.861524 47.062567 -24.372631 48.037499 -23.3977 C 49.02984 -22.422769 49.526433 -21.135077 49.526433 -19.533405 L 49.526433 0.00026864798 L 51.119941 0.00026864798 L 51.119941 -19.533405 C 51.119941 -21.518086 50.457816 -23.172032 49.134695 -24.495153 C 47.828984 -25.818274 46.175333 -26.479521 44.173242 -26.479521 L 39.890689 -26.479521 z M 101.30548 -26.479521 C 99.303393 -26.479521 97.640593 -25.818274 96.317472 -24.495153 C 94.994351 -23.189442 94.332227 -21.535496 94.332227 -19.533405 L 94.332227 -6.9458479 C 94.332227 -4.9437568 94.994351 -3.2823535 96.317472 -1.9592325 C 97.640593 -0.65352094 99.303393 0.00026864798 101.30548 0.00026864798 L 112.79534 0.00026864798 L 112.79534 -1.5928621 L 101.30548 -1.5928621 C 99.686402 -1.5928621 98.3896 -2.0800967 97.414669 -3.055028 C 96.439737 -4.0473687 95.952293 -5.3441751 95.952293 -6.9458479 L 95.952293 -12.038561 L 113.86598 -12.038561 L 113.86598 -19.533405 C 113.86598 -21.518086 113.20551 -23.172032 111.88239 -24.495153 C 110.57668 -25.818274 108.92137 -26.479521 106.91928 -26.479521 L 101.30548 -26.479521 z M 212.81453 -26.479521 C 210.81244 -26.479521 209.1513 -25.818274 207.82818 -24.495153 C 206.50505 -23.189442 205.84293 -21.535496 205.84293 -19.533405 L 205.84293 -6.4236458 C 205.84293 -4.4215548 206.50505 -2.7601514 207.82818 -1.4370304 C 209.1513 -0.13131886 210.81244 0.52247073 212.81453 0.52247073 L 218.95285 0.52247073 C 220.95494 0.52247073 222.6086 -0.13131886 223.91431 -1.4370304 C 225.23743 -2.7601514 225.89789 -4.4215548 225.89789 -6.4236458 L 225.89789 -19.533405 C 225.89789 -21.518086 225.23743 -23.172032 223.91431 -24.495153 C 222.6086 -25.818274 220.95494 -26.479521 218.95285 -26.479521 L 212.81453 -26.479521 z M 376.46946 -26.479521 C 374.46737 -26.479521 372.80623 -25.818274 371.48311 -24.495153 C 370.15999 -23.189442 369.49786 -21.535496 369.49786 -19.533405 L 369.49786 -6.9458479 C 369.49786 -4.9437568 370.15999 -3.2823535 371.48311 -1.9592325 C 372.80623 -0.65352094 374.46737 0.00026864798 376.46946 0.00026864798 L 387.96098 0.00026864798 L 387.96098 -1.5928621 L 376.46946 -1.5928621 C 374.85038 -1.5928621 373.55358 -2.0800967 372.57865 -3.055028 C 371.60371 -4.0473687 371.11627 -5.3441751 371.11627 -6.9458479 L 371.11627 -12.038561 L 389.03162 -12.038561 L 389.03162 -19.533405 C 389.03162 -21.518086 388.36949 -23.172032 387.04637 -24.495153 C 385.74066 -25.818274 384.08701 -26.479521 382.08492 -26.479521 L 376.46946 -26.479521 z M 125.9451 -25.930795 C 124.0997 -25.930795 122.56915 -25.339153 121.35049 -24.155307 C 120.13182 -22.971462 119.52127 -21.431039 119.52127 -19.533405 L 119.52127 -19.246608 C 119.52127 -17.644935 120.02701 -16.320784 121.03677 -15.276214 C 122.06392 -14.231645 123.52626 -13.509908 125.42389 -13.10949 L 130.75052 -12.038561 C 133.97128 -11.39441 135.58251 -9.6965469 135.58251 -6.9458479 C 135.58251 -5.3441751 135.08591 -4.0473687 134.09357 -3.055028 C 133.11864 -2.0800967 131.83099 -1.5928621 130.22931 -1.5928621 L 119.52127 -1.5928621 L 119.52127 0.00026864798 L 130.22931 0.00026864798 C 132.23141 0.00026864798 133.88506 -0.65352094 135.19077 -1.9592325 C 136.51389 -3.2823535 137.17435 -4.9437568 137.17435 -6.9458479 L 137.17435 -7.2077778 C 137.17435 -10.707085 135.21709 -12.848265 131.29995 -13.631692 L 125.9451 -14.702621 C 122.74176 -15.364181 121.14134 -16.97421 121.14134 -19.533405 C 121.14134 -20.978392 121.57555 -22.135989 122.44602 -23.006463 C 123.3165 -23.894347 124.4827 -24.337664 125.9451 -24.337664 L 135.84311 -24.337664 L 136.39088 -24.861524 L 136.39088 -25.930795 L 125.9451 -25.930795 z M 147.39272 -25.930795 C 145.54732 -25.930795 144.01511 -25.339153 142.79645 -24.155307 C 141.57779 -22.971462 140.96889 -21.431039 140.96889 -19.533405 L 140.96889 -19.246608 C 140.96889 -17.644935 141.47298 -16.320784 142.48273 -15.276214 C 143.50989 -14.231645 144.97222 -13.509908 146.86985 -13.10949 L 152.19649 -12.038561 C 155.41724 -11.39441 157.02847 -9.6965469 157.02847 -6.9458479 C 157.02847 -5.3441751 156.53187 -4.0473687 155.53953 -3.055028 C 154.5646 -2.0800967 153.27695 -1.5928621 151.67528 -1.5928621 L 140.96889 -1.5928621 L 140.96889 0.00026864798 L 151.67528 0.00026864798 C 153.67737 0.00026864798 155.33102 -0.65352094 156.63673 -1.9592325 C 157.95985 -3.2823535 158.62198 -4.9437568 158.62198 -6.9458479 L 158.62198 -7.2077778 C 158.62198 -10.707085 156.66305 -12.848265 152.74591 -13.631692 L 147.39272 -14.702621 C 144.18938 -15.364181 142.5873 -16.97421 142.5873 -19.533405 C 142.5873 -20.978392 143.02317 -22.135989 143.89365 -23.006463 C 144.76412 -23.894347 145.93033 -24.337664 147.39272 -24.337664 L 157.28907 -24.337664 L 157.8385 -24.861524 L 157.8385 -25.930795 L 147.39272 -25.930795 z M 237.99029 -25.930795 C 236.14489 -25.930795 234.61268 -25.339153 233.39402 -24.155307 C 232.17536 -22.971462 231.56647 -21.431039 231.56647 -19.533405 L 231.56647 -19.246608 C 231.56647 -17.644935 232.07221 -16.320784 233.08196 -15.276214 C 234.10912 -14.231645 235.57145 -13.509908 237.46908 -13.10949 L 242.79572 -12.038561 C 246.01647 -11.39441 247.6277 -9.6965469 247.6277 -6.9458479 C 247.6277 -5.3441751 247.1311 -4.0473687 246.13876 -3.055028 C 245.16383 -2.0800967 243.87452 -1.5928621 242.27285 -1.5928621 L 231.56647 -1.5928621 L 231.56647 0.00026864798 L 242.27285 0.00026864798 C 244.27494 0.00026864798 245.93025 -0.65352094 247.23596 -1.9592325 C 248.55908 -3.2823535 249.21955 -4.9437568 249.21955 -6.9458479 L 249.21955 -7.2077778 C 249.21955 -10.707085 247.26062 -12.848265 243.34349 -13.631692 L 237.99029 -14.702621 C 234.78695 -15.364181 233.18487 -16.97421 233.18487 -19.533405 C 233.18487 -20.978392 233.62074 -22.135989 234.49122 -23.006463 C 235.36169 -23.894347 236.5279 -24.337664 237.99029 -24.337664 L 247.8883 -24.337664 L 248.43607 -24.861524 L 248.43607 -25.930795 L 237.99029 -25.930795 z M 259.43626 -25.930795 C 257.59085 -25.930795 256.06031 -25.339153 254.84164 -24.155307 C 253.62298 -22.971462 253.01243 -21.431039 253.01243 -19.533405 L 253.01243 -19.246608 C 253.01243 -17.644935 253.51817 -16.320784 254.52792 -15.276214 C 255.55508 -14.231645 257.01741 -13.509908 258.91505 -13.10949 L 264.24168 -12.038561 C 267.46243 -11.39441 269.07366 -9.6965469 269.07366 -6.9458479 C 269.07366 -5.3441751 268.57707 -4.0473687 267.58473 -3.055028 C 266.60979 -2.0800967 265.32214 -1.5928621 263.72047 -1.5928621 L 253.01243 -1.5928621 L 253.01243 0.00026864798 L 263.72047 0.00026864798 C 265.72256 0.00026864798 267.37621 -0.65352094 268.68192 -1.9592325 C 270.00504 -3.2823535 270.66551 -4.9437568 270.66551 -6.9458479 L 270.66551 -7.2077778 C 270.66551 -10.707085 268.70824 -12.848265 264.79111 -13.631692 L 259.43626 -14.702621 C 256.23291 -15.364181 254.63249 -16.97421 254.63249 -19.533405 C 254.63249 -20.978392 255.0667 -22.135989 255.93718 -23.006463 C 256.80765 -23.894347 257.97386 -24.337664 259.43626 -24.337664 L 269.33427 -24.337664 L 269.88203 -24.861524 L 269.88203 -25.930795 L 259.43626 -25.930795 z M 276.60133 -25.930795 L 276.60133 0.00026864798 L 278.21973 0.00026864798 L 278.21973 -25.930795 L 276.60133 -25.930795 z M 313.34331 -25.930795 L 313.34331 0.00026864798 L 314.96171 0.00026864798 L 314.96171 -25.930795 L 313.34331 -25.930795 z M 333.23726 -25.930795 L 333.23726 0.00026864798 L 334.85732 0.00026864798 L 334.85732 -25.930795 L 333.23726 -25.930795 z M 360.6207 -25.930795 L 360.6207 0.00026864798 L 362.2391 0.00026864798 L 362.2391 -25.930795 L 360.6207 -25.930795 z M 401.11074 -25.930795 C 399.26533 -25.930795 397.73313 -25.339153 396.51446 -24.155307 C 395.2958 -22.971462 394.68691 -21.431039 394.68691 -19.533405 L 394.68691 -19.246608 C 394.68691 -17.644935 395.19099 -16.320784 396.20074 -15.276214 C 397.2279 -14.231645 398.69024 -13.509908 400.58787 -13.10949 L 405.91616 -12.038561 C 409.13692 -11.39441 410.74648 -9.6965469 410.74648 -6.9458479 C 410.74648 -5.3441751 410.25155 -4.0473687 409.25921 -3.055028 C 408.28428 -2.0800967 406.99496 -1.5928621 405.39329 -1.5928621 L 394.68691 -1.5928621 L 394.68691 0.00026864798 L 405.39329 0.00026864798 C 407.39538 0.00026864798 409.04903 -0.65352094 410.35475 -1.9592325 C 411.67787 -3.2823535 412.33999 -4.9437568 412.33999 -6.9458479 L 412.33999 -7.2077778 C 412.33999 -10.707085 410.38106 -12.848265 406.46393 -13.631692 L 401.11074 -14.702621 C 397.90739 -15.364181 396.30532 -16.97421 396.30532 -19.533405 C 396.30532 -20.978392 396.74119 -22.135989 397.61166 -23.006463 C 398.48214 -23.894347 399.64834 -24.337664 401.11074 -24.337664 L 411.00875 -24.337664 L 411.55652 -24.861524 L 411.55652 -25.930795 L 401.11074 -25.930795 z M 101.30548 -24.861524 L 106.91928 -24.861524 C 108.52095 -24.861524 109.81027 -24.372631 110.7852 -23.3977 C 111.76013 -22.422769 112.24757 -21.135077 112.24757 -19.533405 L 112.24757 -13.631692 L 95.952293 -13.631692 L 95.952293 -19.533405 C 95.952293 -21.135077 96.439737 -22.422769 97.414669 -23.3977 C 98.407009 -24.372631 99.703811 -24.861524 101.30548 -24.861524 z M 212.81453 -24.861524 L 218.95285 -24.861524 C 220.55453 -24.861524 221.84218 -24.372631 222.81711 -23.3977 C 223.80945 -22.422769 224.30604 -21.135077 224.30604 -19.533405 L 224.30604 -6.4236458 C 224.30604 -4.821973 223.80945 -3.5251667 222.81711 -2.5328259 C 221.84218 -1.5578946 220.55453 -1.0706601 218.95285 -1.0706601 L 212.81453 -1.0706601 C 211.21285 -1.0706601 209.91605 -1.5578946 208.92371 -2.5328259 C 207.94878 -3.5251667 207.46134 -4.821973 207.46134 -6.4236458 L 207.46134 -19.533405 C 207.46134 -21.135077 207.94878 -22.422769 208.92371 -23.3977 C 209.91605 -24.372631 211.21285 -24.861524 212.81453 -24.861524 z M 294.3042 -24.861524 L 299.13453 -24.861524 C 300.7362 -24.861524 302.02551 -24.372631 303.00044 -23.3977 C 303.97537 -22.422769 304.46282 -21.135077 304.46282 -19.533405 L 304.46282 -6.9458479 C 304.46282 -5.3441751 303.97537 -4.0473687 303.00044 -3.055028 C 302.02551 -2.0800967 300.7362 -1.5928621 299.13453 -1.5928621 L 288.16754 -1.5928621 L 288.16754 -18.724406 L 288.16754 -19.351048 C 288.20236 -19.786286 288.33295 -20.308323 288.55928 -20.917655 C 288.7856 -21.526987 289.08173 -22.118629 289.44732 -22.693142 C 289.83033 -23.285064 290.44837 -23.790529 291.30144 -24.208357 C 292.1545 -24.643594 293.15518 -24.861524 294.3042 -24.861524 z M 376.46946 -24.861524 L 382.08492 -24.861524 C 383.68659 -24.861524 384.97424 -24.372631 385.94917 -23.3977 C 386.92411 -22.422769 387.41155 -21.135077 387.41155 -19.533405 L 387.41155 -13.631692 L 371.11627 -13.631692 L 371.11627 -19.533405 C 371.11627 -21.135077 371.60371 -22.422769 372.57865 -23.3977 C 373.57099 -24.372631 374.86779 -24.861524 376.46946 -24.861524 z M 64.563505 -24.337664 L 75.505593 -24.337664 L 75.505593 -7.2077778 L 75.452476 -6.5811353 C 75.452476 -6.1458981 75.340179 -5.6313184 75.113856 -5.0393959 C 74.887533 -4.4648828 74.582257 -3.8732408 74.199249 -3.2639088 C 73.833649 -2.6545767 73.224759 -2.1325397 72.371694 -1.6973026 C 71.518629 -1.2794749 70.517954 -1.0706601 69.368928 -1.0706601 L 64.563505 -1.0706601 C 62.961832 -1.0706601 61.66503 -1.5578946 60.672689 -2.5328259 C 59.697758 -3.5251667 59.210314 -4.821973 59.210314 -6.4236458 L 59.210314 -18.984678 C 59.210314 -20.586351 59.697758 -21.8757 60.672689 -22.850631 C 61.66503 -23.842972 62.961832 -24.337664 64.563505 -24.337664 z "
         transform="matrix(0.99872293,0,0,-1,643.3252,447.9487)" />
      <g
         id="g8756">
        <g
           id="g8758"
           clip-path="url(#clipPath8762)">
          <g
             id="g8764"
             transform="translate(945.1191,523.3584)">
            <path
               d="m 0,0 -4.166,-1.553 c -7.551,-2.511 -15.359,-3.768 -23.432,-3.768 -8.869,0 -13.302,5.292 -13.302,15.882 0,5.03 1.225,8.834 3.671,11.418 2.454,2.583 6.256,4.137 11.417,4.667 L 0,29.026 Z m 18.467,50.272 c 0,11.251 -2.651,19.49 -7.943,24.724 -5.292,5.225 -13.768,7.837 -25.411,7.837 -12.05,0 -25.086,-1.653 -39.116,-4.963 l 0.595,-13.501 c 14.558,1.588 27.4,2.381 38.521,2.381 4.891,0 8.604,-1.287 11.12,-3.868 C -1.255,60.296 0,56.093 0,50.272 V 42.527 L -28.191,39.95 c -10.991,-1.067 -18.997,-3.876 -24.026,-8.443 -5.031,-4.564 -7.541,-11.749 -7.541,-21.542 0,-9.93 2.444,-17.543 7.346,-22.835 4.889,-5.292 12.039,-7.94 21.439,-7.94 10.037,0 25.254,5.45 35.467,9.684 l 1.575,-7.5 12.382,0.014 z m 90.543,12.31 c -1.987,7.012 -5.364,12.143 -10.125,15.386 -4.772,3.247 -11.389,4.865 -19.864,4.865 -4.896,0 -9.658,-0.597 -14.291,-1.786 -4.636,-1.192 -9.796,-3.115 -15.488,-5.755 V 122.74 H 30.778 V -18.629 h 18.464 v 76.244 c 0,2.145 1.352,4.057 3.377,4.77 7.279,2.512 14.297,3.766 21.049,3.766 5.422,0 9.561,-0.985 12.404,-2.976 2.846,-1.982 4.799,-5.232 5.86,-9.725 1.058,-4.502 1.588,-11.055 1.588,-19.658 v -52.421 h 18.466 v 52.814 c 0,11.919 -0.994,21.378 -2.976,28.397 M -71.256,62.385 c -1.98,7.011 -5.291,12.173 -9.93,15.483 -4.632,3.309 -11.05,4.965 -19.257,4.965 -6.491,0 -12.877,-0.93 -19.162,-2.78 -6.289,-1.852 -12.081,-4.239 -17.374,-7.15 -2.515,3.31 -5.957,5.791 -10.327,7.447 -4.362,1.656 -9.131,2.483 -14.292,2.483 -4.767,0 -9.398,-0.727 -13.898,-2.186 -4.502,-1.458 -9.271,-3.636 -14.294,-6.547 v 6.547 h -18.269 v -99.276 h 18.465 v 78.626 l 3.18,1.59 c 2.643,1.189 5.924,2.249 9.829,3.179 3.897,0.921 7.708,1.385 11.409,1.385 5.031,0 8.84,-1.021 11.418,-3.075 2.584,-2.056 4.333,-5.43 5.264,-10.127 0.928,-4.696 1.392,-11.483 1.392,-20.353 v -51.225 h 18.664 v 51.624 c 0,12.311 -0.73,21.312 -2.187,27.002 l 3.57,1.59 c 3.051,1.32 6.557,2.417 10.528,3.28 3.967,0.857 7.808,1.284 11.518,1.284 5.029,0 8.835,-1.021 11.417,-3.075 2.578,-2.056 4.369,-5.358 5.357,-9.924 0.995,-4.567 1.497,-11.018 1.497,-19.36 v -52.421 h 18.457 v 52.814 c 0,11.782 -0.989,21.182 -2.975,28.2 m -211.038,-25.46 h 47.603 v 15.9 c 0,9.242 -4.623,13.897 -13.866,13.961 h -19.873 c -9.244,0 -13.864,-4.653 -13.864,-13.961 z M -299.164,7.161 V 56.8 c 0,7.43 2.438,13.588 7.318,18.469 4.881,4.879 11.036,7.318 18.471,7.318 h 29.764 c 7.431,0 13.604,-2.439 18.517,-7.318 4.911,-4.881 7.368,-11.039 7.368,-18.469 V 21.123 h -64.568 v -9.987 c 0,-9.243 4.62,-13.864 13.864,-13.864 h 46.729 v -15.901 h -51.674 c -7.435,0 -13.59,2.442 -18.471,7.319 -4.88,4.881 -7.318,11.039 -7.318,18.471"
               style="fill:#413e3f;fill-opacity:1;fill-rule:nonzero;stroke:none"
               id="path8766" />
          </g>
        </g>
      </g>
      <g
         id="g8768">
        <g
           id="g8770">
          <g
             id="g8776">
            <g
               id="g8778">
              <path
                 d="m 459.043,644.264 -50.736,-25.01 -40.044,-44.335 -12.343,-53.73 31.67,-54.502 51.529,2.328 20.066,-35.113 32.126,28.624 47.804,5.135 23.283,33.869 45.496,17.771 7.433,57.974 -49.163,50.609 -61.977,17.096 z m -39.796,-27.211 41.434,20.425 38.358,0.609 -13.855,-37.81 c -2.866,-0.043 -5.422,-1.354 -7.136,-3.398 v 0 z m 72.333,-19.12 14.465,39.469 48.076,-13.263 -61.996,-26.722 c -0.174,0.178 -0.355,0.351 -0.545,0.516 m 67.886,21.093 -34.355,-86.854 c -0.031,10e-4 -0.062,0.003 -0.093,0.003 v 0 c -0.52,0 -1.028,-0.043 -1.523,-0.123 v 0 l -30.757,52.781 c 1.309,1.629 2.094,3.696 2.094,5.945 v 0 c 0,0.13 -0.004,0.256 -0.011,0.382 v 0 z m 6.885,-1.11 41.8,-43.03 -76.356,-44.338 z m -191.845,-46.249 36.87,40.823 28.726,-83.25 c -1.163,-0.979 -2.086,-2.228 -2.673,-3.655 v 0 l -73.607,-0.417 z m 72.037,-40.207 -27.016,78.294 56.311,-19.317 c 0.078,-2.155 0.869,-4.127 2.148,-5.686 v 0 l -30.349,-53.388 c -0.359,0.054 -0.724,0.086 -1.094,0.097 m 40.31,49.942 30.757,-52.781 c -0.622,-0.775 -1.123,-1.647 -1.481,-2.591 v 0 l -61.168,-0.345 c -0.358,0.837 -0.832,1.615 -1.402,2.311 v 0 l 30.351,53.389 c 0.463,-0.07 0.937,-0.106 1.42,-0.106 v 0 c 0.52,0 1.028,0.044 1.523,0.123 m 47.618,-59.65 c 0.031,0.302 0.049,0.611 0.049,0.922 v 0 c 0,0.513 -0.043,1.016 -0.122,1.509 v 0 l 72.665,42.194 -5.41,-42.203 -40.448,-15.799 z m -79.844,-4.199 c 0.222,0.421 0.414,0.864 0.571,1.32 v 0 l 60.97,0.345 c 0.364,-0.932 0.869,-1.793 1.493,-2.556 v 0 l -24.525,-42.936 z m -89.187,0.812 71.827,0.407 c 0.006,-0.017 0.011,-0.033 0.016,-0.048 v 0 l -47.892,-41.579 z m 165.985,-2.706 24.123,-12.07 -20.273,-29.489 -36.308,-3.901 24.608,43.083 c 0.47,-0.071 0.953,-0.108 1.443,-0.108 v 0 c 2.468,0 4.718,0.942 6.407,2.485 m -89.675,-2.078 c 1.332,-0.711 2.851,-1.114 4.465,-1.114 v 0 c 1.16,0 2.269,0.209 3.296,0.587 v 0 l 38.761,-44.111 -27.342,-24.364 -17.962,31.43 -46.935,-2.121 z"
                 style="fill:url(#linearGradient8784);stroke:none"
                 id="path8786" />
            </g>
          </g>
        </g>
      </g>
    </g>
  </g>
</svg>
