<?xml version="1.0" encoding="UTF-8" standalone="no"?>
<!-- Created with Inkscape (http://www.inkscape.org/) -->

<svg
   version="1.1"
   id="svg8302"
   width="826.104"
   height="250"
   viewBox="0 0 826.10399 250"
   sodipodi:docname="logo.svg"
   inkscape:version="1.2.2 (732a01da63, 2022-12-09, custom)"
   xmlns:inkscape="http://www.inkscape.org/namespaces/inkscape"
   xmlns:sodipodi="http://sodipodi.sourceforge.net/DTD/sodipodi-0.dtd"
   xmlns="http://www.w3.org/2000/svg"
   xmlns:svg="http://www.w3.org/2000/svg">
  <defs
     id="defs8306">
    <clipPath
       clipPathUnits="userSpaceOnUse"
       id="clipPath8762">
      <path
         d="M 0,1080 H 1413.02 V 0 H 0 Z"
         id="path8760" />
    </clipPath>
  </defs>
  <sodipodi:namedview
     id="namedview8304"
     pagecolor="#505050"
     bordercolor="#ffffff"
     borderopacity="1"
     inkscape:showpageshadow="0"
     inkscape:pageopacity="0"
     inkscape:pagecheckerboard="1"
     inkscape:deskcolor="#505050"
     showgrid="false"
     inkscape:zoom="0.54956761"
     inkscape:cx="413.052"
     inkscape:cy="124.64345"
     inkscape:window-width="1360"
     inkscape:window-height="737"
     inkscape:window-x="0"
     inkscape:window-y="0"
     inkscape:window-maximized="1"
     inkscape:current-layer="g32573" />
  <g
     id="g8734"
     inkscape:groupmode="layer"
     inkscape:label="Page 5"
     transform="matrix(1.3333333,0,0,-1.3333333,-474.55995,861.46454)">
    <g
       id="g32573"
       transform="matrix(0.88361539,0,0,0.88361539,41.42361,75.19591)">
      <path
         id="text8754"
         style="font-variant:normal;font-weight:500;font-stretch:normal;font-size:53.482px;font-family:'TT Supermolot Neue Light';-inkscape-font-specification:TTSupermolotNeue-Medium;writing-mode:lr-tb;fill:#ffffff;fill-opacity:1;fill-rule:nonzero;stroke:none"
         d="M 5.6153274,-37.447423 V 2.6864798e-4 H 26.740928 V -1.5928621 H 7.2071756 V -18.411085 H 21.648342 v -1.59313 H 7.2071756 v -15.82521 H 26.218058 l 0.52287,-0.547069 v -1.070929 z m 170.5003826,0 V 2.6864798e-4 h 1.59184 V -13.631692 h 13.6577 c 2.41991,0 4.3622,-0.739967 5.8246,-2.219774 1.4624,-1.479806 2.19273,-3.412172 2.19273,-5.797271 v -7.755116 c 0,-2.437328 -0.73033,-4.387924 -2.19273,-5.850321 -1.4624,-1.462397 -3.40469,-2.193249 -5.8246,-2.193249 z m 1.59184,1.617998 h 13.6577 c 1.98468,0 3.54267,0.57507 4.67429,1.724096 1.14902,1.131616 1.72464,2.699385 1.72464,4.701476 v 7.755116 c 0,1.984681 -0.56647,3.550792 -1.69809,4.699818 -1.13161,1.131617 -2.69875,1.697571 -4.70084,1.697571 h -13.6577 z m 98.89378,0 v 4.283715 h 1.6184 v -4.283715 z m 36.74198,0 v 4.283715 h 1.6184 v -4.283715 z m 19.89395,0 v 4.283715 h 1.62006 v -4.283715 z m 27.38344,0 v 4.283715 h 1.6184 v -4.283715 z m -285.115107,0.26193 v 9.6367 H 64.563505 c -2.002091,0 -3.664891,0.661247 -4.988012,1.984368 -1.323121,1.305712 -1.985246,2.959658 -1.985246,4.961749 v 12.5610322 c 0,2.002091 0.662125,3.6634944 1.985246,4.9866154 1.323121,1.30571154 2.985921,1.95950113 4.988012,1.95950113 h 4.805423 c 0.783426,0 1.532061,-0.11352247 2.24585,-0.3398458 0.713789,-0.22632334 1.269445,-0.47905566 1.669863,-0.75760746 0.417828,-0.29596128 0.792975,-0.61829857 1.123756,-0.96648827 0.348189,-0.3655993 0.565295,-0.6257889 0.652342,-0.7824742 0.08705,-0.1566854 0.14777,-0.2702079 0.182589,-0.3398458 h 0.262265 L 75.792757,2.6864798e-4 H 77.124 V -35.567495 Z m 9.949466,0 V 2.6864798e-4 h 1.620066 V -35.567495 Z m 201.092411,0 V 2.6864798e-4 h 12.58706 c 1.98468,0 3.63999,-0.65378958798 4.96311,-1.95950114798 1.32312,-1.323121 1.98358,-2.9845243 1.98358,-4.9866154 V -19.533405 c 0,-1.984681 -0.66046,-3.638627 -1.98358,-4.961748 -1.30571,-1.323121 -2.96102,-1.984368 -4.96311,-1.984368 h -4.83033 c -0.78342,0 -1.53206,0.12098 -2.24585,0.364712 -0.71379,0.226324 -1.28025,0.488171 -1.69808,0.784132 -0.40042,0.278552 -0.7739,0.600889 -1.12209,0.966489 -0.33078,0.348189 -0.5404,0.600922 -0.62745,0.757607 -0.087,0.156686 -0.14777,0.26855 -0.18259,0.338188 h -0.2606 v -12.299102 z m 36.74364,0 V 2.6864798e-4 h 1.61841 V -35.567495 Z m 21.51402,0.808999 -0.54943,8.827701 h -4.80376 v 1.593131 h 4.80376 v 17.3918161 c 0,2.0020911 0.66213,3.6634944 1.98525,4.9866154 1.32312,1.30571156 2.98592,1.95950114798 4.98801,1.95950114798 h 3.73478 V -1.5928621 h -3.73478 c -1.61908,0 -2.91589,-0.4872346 -3.89082,-1.4621659 -0.97493,-0.9923407 -1.46237,-2.2891471 -1.46237,-3.8908199 V -24.337664 h 6.9467 l 0.52121,-0.810656 v -0.782475 h -7.46791 v -8.827701 z m -304.914441,8.278975 c -0.783427,0 -1.532061,0.12098 -2.24585,0.364712 -0.713789,0.226324 -1.280255,0.488171 -1.698082,0.784132 -0.400419,0.278552 -0.773906,0.600889 -1.122096,0.966489 -0.33078,0.348189 -0.540396,0.600922 -0.627443,0.757607 -0.08705,0.156686 -0.147771,0.26855 -0.18259,0.338188 h -0.260605 l -0.262265,-2.662402 H 32.133957 V 2.6864798e-4 h 1.620066 V -18.724406 -19.351048 c 0.03482,-0.435238 0.165414,-0.957275 0.391738,-1.566607 0.226323,-0.609332 0.522449,-1.200974 0.888048,-1.775487 0.383009,-0.591922 1.001048,-1.097387 1.854113,-1.515215 0.853065,-0.435237 1.853741,-0.653167 3.002767,-0.653167 h 4.282553 c 1.601673,0 2.889325,0.488893 3.864257,1.463824 0.992341,0.974931 1.488934,2.262623 1.488934,3.864295 V 2.6864798e-4 h 1.593508 V -19.533405 c 0,-1.984681 -0.662125,-3.638627 -1.985246,-4.961748 -1.305711,-1.323121 -2.959362,-1.984368 -4.961453,-1.984368 z m 61.414791,0 c -2.002087,0 -3.664887,0.661247 -4.988008,1.984368 -1.323121,1.305711 -1.985245,2.959657 -1.985245,4.961748 v 12.5875571 c 0,2.0020911 0.662124,3.6634944 1.985245,4.9866154 1.323121,1.30571156 2.985921,1.95950114798 4.988008,1.95950114798 h 11.48986 V -1.5928621 h -11.48986 c -1.619078,0 -2.91588,-0.4872346 -3.890811,-1.4621659 -0.974932,-0.9923407 -1.462376,-2.2891471 -1.462376,-3.8908199 v -5.0927131 h 17.913687 v -7.494844 c 0,-1.984681 -0.66047,-3.638627 -1.98359,-4.961748 -1.30571,-1.323121 -2.96102,-1.984368 -4.96311,-1.984368 z m 111.50905,0 c -2.00209,0 -3.66323,0.661247 -4.98635,1.984368 -1.32313,1.305711 -1.98525,2.959657 -1.98525,4.961748 v 13.1097592 c 0,2.002091 0.66212,3.6634944 1.98525,4.9866154 1.32312,1.30571154 2.98426,1.95950113 4.98635,1.95950113 h 6.13832 c 2.00209,0 3.65575,-0.65378959 4.96146,-1.95950113 1.32312,-1.323121 1.98358,-2.9845244 1.98358,-4.9866154 V -19.533405 c 0,-1.984681 -0.66046,-3.638627 -1.98358,-4.961748 -1.30571,-1.323121 -2.95937,-1.984368 -4.96146,-1.984368 z m 163.65493,0 c -2.00209,0 -3.66323,0.661247 -4.98635,1.984368 -1.32312,1.305711 -1.98525,2.959657 -1.98525,4.961748 v 12.5875571 c 0,2.0020911 0.66213,3.6634944 1.98525,4.9866154 1.32312,1.30571156 2.98426,1.95950114798 4.98635,1.95950114798 h 11.49152 V -1.5928621 h -11.49152 c -1.61908,0 -2.91588,-0.4872346 -3.89081,-1.4621659 -0.97494,-0.9923407 -1.46238,-2.2891471 -1.46238,-3.8908199 v -5.0927131 h 17.91535 v -7.494844 c 0,-1.984681 -0.66213,-3.638627 -1.98525,-4.961748 -1.30571,-1.323121 -2.95936,-1.984368 -4.96145,-1.984368 z m -250.52436,0.548726 c -1.8454,0 -3.37595,0.591642 -4.59461,1.775488 -1.21867,1.183845 -1.82922,2.724268 -1.82922,4.621902 v 0.286797 c 0,1.601673 0.50574,2.925824 1.5155,3.970394 1.02715,1.044569 2.48949,1.766306 4.38712,2.166724 l 5.32663,1.070929 c 3.22076,0.644151 4.83199,2.3420141 4.83199,5.0927131 0,1.6016728 -0.4966,2.8984792 -1.48894,3.8908199 -0.97493,0.9749313 -2.26258,1.4621659 -3.86426,1.4621659 H 119.52127 V 2.6864798e-4 h 10.70804 c 2.0021,0 3.65575,-0.65378958798 4.96146,-1.95950114798 1.32312,-1.323121 1.98358,-2.9845243 1.98358,-4.9866154 v -0.2619299 c 0,-3.4993072 -1.95726,-5.6404872 -5.8744,-6.4239142 l -5.35485,-1.070929 c -3.20334,-0.66156 -4.80376,-2.271589 -4.80376,-4.830784 0,-1.444987 0.43421,-2.602584 1.30468,-3.473058 0.87048,-0.887884 2.03668,-1.331201 3.49908,-1.331201 h 9.89801 l 0.54777,-0.52386 v -1.069271 z m 21.44762,0 c -1.8454,0 -3.37761,0.591642 -4.59627,1.775488 -1.21866,1.183845 -1.82756,2.724268 -1.82756,4.621902 v 0.286797 c 0,1.601673 0.50409,2.925824 1.51384,3.970394 1.02716,1.044569 2.48949,1.766306 4.38712,2.166724 l 5.32664,1.070929 c 3.22075,0.644151 4.83198,2.3420141 4.83198,5.0927131 0,1.6016728 -0.4966,2.8984792 -1.48894,3.8908199 -0.97493,0.9749313 -2.26258,1.4621659 -3.86425,1.4621659 H 140.96889 V 2.6864798e-4 h 10.70639 c 2.00209,0 3.65574,-0.65378958798 4.96145,-1.95950114798 1.32312,-1.323121 1.98525,-2.9845243 1.98525,-4.9866154 v -0.2619299 c 0,-3.4993072 -1.95893,-5.6404872 -5.87607,-6.4239142 l -5.35319,-1.070929 c -3.20334,-0.66156 -4.80542,-2.271589 -4.80542,-4.830784 0,-1.444987 0.43587,-2.602584 1.30635,-3.473058 0.87047,-0.887884 2.03668,-1.331201 3.49907,-1.331201 h 9.89635 l 0.54943,-0.52386 v -1.069271 z m 90.59757,0 c -1.8454,0 -3.37761,0.591642 -4.59627,1.775488 -1.21866,1.183845 -1.82755,2.724268 -1.82755,4.621902 v 0.286797 c 0,1.601673 0.50574,2.925824 1.51549,3.970394 1.02716,1.044569 2.48949,1.766306 4.38712,2.166724 l 5.32664,1.070929 c 3.22075,0.644151 4.83198,2.3420141 4.83198,5.0927131 0,1.6016728 -0.4966,2.8984792 -1.48894,3.8908199 -0.97493,0.9749313 -2.26424,1.4621659 -3.86591,1.4621659 H 231.56647 V 2.6864798e-4 h 10.70638 c 2.00209,0 3.6574,-0.65378958798 4.96311,-1.95950114798 1.32312,-1.323121 1.98359,-2.9845243 1.98359,-4.9866154 v -0.2619299 c 0,-3.4993072 -1.95893,-5.6404872 -5.87606,-6.4239142 l -5.3532,-1.070929 c -3.20334,-0.66156 -4.80542,-2.271589 -4.80542,-4.830784 0,-1.444987 0.43587,-2.602584 1.30635,-3.473058 0.87047,-0.887884 2.03668,-1.331201 3.49907,-1.331201 h 9.89801 l 0.54777,-0.52386 v -1.069271 z m 21.44597,0 c -1.84541,0 -3.37595,0.591642 -4.59462,1.775488 -1.21866,1.183845 -1.82921,2.724268 -1.82921,4.621902 v 0.286797 c 0,1.601673 0.50574,2.925824 1.51549,3.970394 1.02716,1.044569 2.48949,1.766306 4.38713,2.166724 l 5.32663,1.070929 c 3.22075,0.644151 4.83198,2.3420141 4.83198,5.0927131 0,1.6016728 -0.49659,2.8984792 -1.48893,3.8908199 -0.97494,0.9749313 -2.26259,1.4621659 -3.86426,1.4621659 H 253.01243 V 2.6864798e-4 h 10.70804 c 2.00209,0 3.65574,-0.65378958798 4.96145,-1.95950114798 1.32312,-1.323121 1.98359,-2.9845243 1.98359,-4.9866154 v -0.2619299 c 0,-3.4993072 -1.95727,-5.6404872 -5.8744,-6.4239142 l -5.35485,-1.070929 c -3.20335,-0.66156 -4.80377,-2.271589 -4.80377,-4.830784 0,-1.444987 0.43421,-2.602584 1.30469,-3.473058 0.87047,-0.887884 2.03668,-1.331201 3.49908,-1.331201 h 9.89801 l 0.54776,-0.52386 v -1.069271 z m 17.16507,0 V 2.6864798e-4 h 1.6184 V -25.930795 Z m 36.74198,0 V 2.6864798e-4 h 1.6184 V -25.930795 Z m 19.89395,0 V 2.6864798e-4 h 1.62006 V -25.930795 Z m 27.38344,0 V 2.6864798e-4 h 1.6184 V -25.930795 Z m 40.49004,0 c -1.84541,0 -3.37761,0.591642 -4.59628,1.775488 -1.21866,1.183845 -1.82755,2.724268 -1.82755,4.621902 v 0.286797 c 0,1.601673 0.50408,2.925824 1.51383,3.970394 1.02716,1.044569 2.4895,1.766306 4.38713,2.166724 l 5.32829,1.070929 c 3.22076,0.644151 4.83032,2.3420141 4.83032,5.0927131 0,1.6016728 -0.49493,2.8984792 -1.48727,3.8908199 -0.97493,0.9749313 -2.26425,1.4621659 -3.86592,1.4621659 H 394.68691 V 2.6864798e-4 h 10.70638 c 2.00209,0 3.65574,-0.65378958798 4.96146,-1.95950114798 1.32312,-1.323121 1.98524,-2.9845243 1.98524,-4.9866154 v -0.2619299 c 0,-3.4993072 -1.95893,-5.6404872 -5.87606,-6.4239142 l -5.35319,-1.070929 c -3.20335,-0.66156 -4.80542,-2.271589 -4.80542,-4.830784 0,-1.444987 0.43587,-2.602584 1.30634,-3.473058 0.87048,-0.887884 2.03668,-1.331201 3.49908,-1.331201 h 9.89801 l 0.54777,-0.52386 v -1.069271 z m -299.80526,1.069271 h 5.6138 c 1.60167,0 2.89099,0.488893 3.86592,1.463824 0.97493,0.974931 1.46237,2.262623 1.46237,3.864295 v 5.901713 H 95.952293 v -5.901713 c 0,-1.601672 0.487444,-2.889364 1.462376,-3.864295 0.99234,-0.974931 2.289142,-1.463824 3.890811,-1.463824 z m 111.50905,0 h 6.13832 c 1.60168,0 2.88933,0.488893 3.86426,1.463824 0.99234,0.974931 1.48893,2.262623 1.48893,3.864295 v 13.1097592 c 0,1.6016728 -0.49659,2.8984791 -1.48893,3.8908199 -0.97493,0.9749313 -2.26258,1.4621658 -3.86426,1.4621658 h -6.13832 c -1.60168,0 -2.89848,-0.4872345 -3.89082,-1.4621658 -0.97493,-0.9923408 -1.46237,-2.2891471 -1.46237,-3.8908199 V -19.533405 c 0,-1.601672 0.48744,-2.889364 1.46237,-3.864295 0.99234,-0.974931 2.28914,-1.463824 3.89082,-1.463824 z m 81.48967,0 h 4.83033 c 1.60167,0 2.89098,0.488893 3.86591,1.463824 0.97493,0.974931 1.46238,2.262623 1.46238,3.864295 v 12.5875571 c 0,1.6016728 -0.48745,2.8984792 -1.46238,3.8908199 -0.97493,0.9749313 -2.26424,1.4621659 -3.86591,1.4621659 h -10.96699 v -17.1315439 -0.626642 c 0.0348,-0.435238 0.16541,-0.957275 0.39174,-1.566607 0.22632,-0.609332 0.52245,-1.200974 0.88804,-1.775487 0.38301,-0.591922 1.00105,-1.097387 1.85412,-1.515215 0.85306,-0.435237 1.85374,-0.653167 3.00276,-0.653167 z m 82.16526,0 h 5.61546 c 1.60167,0 2.88932,0.488893 3.86425,1.463824 0.97494,0.974931 1.46238,2.262623 1.46238,3.864295 v 5.901713 h -16.29528 v -5.901713 c 0,-1.601672 0.48744,-2.889364 1.46238,-3.864295 0.99234,-0.974931 2.28914,-1.463824 3.89081,-1.463824 z m -311.905955,0.52386 h 10.942088 v 17.1298862 l -0.05312,0.6266425 c 0,0.4352372 -0.112297,0.9498169 -0.33862,1.5417394 -0.226323,0.5745131 -0.531599,1.1661551 -0.914607,1.7754871 -0.3656,0.6093321 -0.97449,1.1313691 -1.827555,1.5666062 -0.853065,0.4178277 -1.85374,0.6266425 -3.002766,0.6266425 h -4.805423 c -1.601673,0 -2.898475,-0.4872345 -3.890816,-1.4621658 -0.974931,-0.9923408 -1.462375,-2.2891471 -1.462375,-3.8908199 V -18.984678 c 0,-1.601673 0.487444,-2.891022 1.462375,-3.865953 0.992341,-0.992341 2.289143,-1.487033 3.890816,-1.487033 z"
         transform="matrix(0.99872293,0,0,-1,643.3252,447.9487)" />
      <g
         id="g8756"
         style="fill:#ffffff">
        <g
           id="g8758"
           clip-path="url(#clipPath8762)"
           style="fill:#ffffff">
          <g
             id="g8764"
             transform="translate(945.1191,523.3584)"
             style="fill:#ffffff">
            <path
               d="m 0,0 -4.166,-1.553 c -7.551,-2.511 -15.359,-3.768 -23.432,-3.768 -8.869,0 -13.302,5.292 -13.302,15.882 0,5.03 1.225,8.834 3.671,11.418 2.454,2.583 6.256,4.137 11.417,4.667 L 0,29.026 Z m 18.467,50.272 c 0,11.251 -2.651,19.49 -7.943,24.724 -5.292,5.225 -13.768,7.837 -25.411,7.837 -12.05,0 -25.086,-1.653 -39.116,-4.963 l 0.595,-13.501 c 14.558,1.588 27.4,2.381 38.521,2.381 4.891,0 8.604,-1.287 11.12,-3.868 C -1.255,60.296 0,56.093 0,50.272 V 42.527 L -28.191,39.95 c -10.991,-1.067 -18.997,-3.876 -24.026,-8.443 -5.031,-4.564 -7.541,-11.749 -7.541,-21.542 0,-9.93 2.444,-17.543 7.346,-22.835 4.889,-5.292 12.039,-7.94 21.439,-7.94 10.037,0 25.254,5.45 35.467,9.684 l 1.575,-7.5 12.382,0.014 z m 90.543,12.31 c -1.987,7.012 -5.364,12.143 -10.125,15.386 -4.772,3.247 -11.389,4.865 -19.864,4.865 -4.896,0 -9.658,-0.597 -14.291,-1.786 -4.636,-1.192 -9.796,-3.115 -15.488,-5.755 V 122.74 H 30.778 V -18.629 h 18.464 v 76.244 c 0,2.145 1.352,4.057 3.377,4.77 7.279,2.512 14.297,3.766 21.049,3.766 5.422,0 9.561,-0.985 12.404,-2.976 2.846,-1.982 4.799,-5.232 5.86,-9.725 1.058,-4.502 1.588,-11.055 1.588,-19.658 v -52.421 h 18.466 v 52.814 c 0,11.919 -0.994,21.378 -2.976,28.397 M -71.256,62.385 c -1.98,7.011 -5.291,12.173 -9.93,15.483 -4.632,3.309 -11.05,4.965 -19.257,4.965 -6.491,0 -12.877,-0.93 -19.162,-2.78 -6.289,-1.852 -12.081,-4.239 -17.374,-7.15 -2.515,3.31 -5.957,5.791 -10.327,7.447 -4.362,1.656 -9.131,2.483 -14.292,2.483 -4.767,0 -9.398,-0.727 -13.898,-2.186 -4.502,-1.458 -9.271,-3.636 -14.294,-6.547 v 6.547 h -18.269 v -99.276 h 18.465 v 78.626 l 3.18,1.59 c 2.643,1.189 5.924,2.249 9.829,3.179 3.897,0.921 7.708,1.385 11.409,1.385 5.031,0 8.84,-1.021 11.418,-3.075 2.584,-2.056 4.333,-5.43 5.264,-10.127 0.928,-4.696 1.392,-11.483 1.392,-20.353 v -51.225 h 18.664 v 51.624 c 0,12.311 -0.73,21.312 -2.187,27.002 l 3.57,1.59 c 3.051,1.32 6.557,2.417 10.528,3.28 3.967,0.857 7.808,1.284 11.518,1.284 5.029,0 8.835,-1.021 11.417,-3.075 2.578,-2.056 4.369,-5.358 5.357,-9.924 0.995,-4.567 1.497,-11.018 1.497,-19.36 v -52.421 h 18.457 v 52.814 c 0,11.782 -0.989,21.182 -2.975,28.2 m -211.038,-25.46 h 47.603 v 15.9 c 0,9.242 -4.623,13.897 -13.866,13.961 h -19.873 c -9.244,0 -13.864,-4.653 -13.864,-13.961 z M -299.164,7.161 V 56.8 c 0,7.43 2.438,13.588 7.318,18.469 4.881,4.879 11.036,7.318 18.471,7.318 h 29.764 c 7.431,0 13.604,-2.439 18.517,-7.318 4.911,-4.881 7.368,-11.039 7.368,-18.469 V 21.123 h -64.568 v -9.987 c 0,-9.243 4.62,-13.864 13.864,-13.864 h 46.729 v -15.901 h -51.674 c -7.435,0 -13.59,2.442 -18.471,7.319 -4.88,4.881 -7.318,11.039 -7.318,18.471"
               style="fill:#ffffff;fill-opacity:1;fill-rule:nonzero;stroke:none"
               id="path8766" />
          </g>
        </g>
      </g>
      <g
         id="g8768"
         style="fill:#ffffff">
        <g
           id="g8770"
           style="fill:#ffffff">
          <g
             id="g8776"
             style="fill:#ffffff">
            <g
               id="g8778"
               style="fill:#ffffff">
              <path
                 d="m 459.043,644.264 -50.736,-25.01 -40.044,-44.335 -12.343,-53.73 31.67,-54.502 51.529,2.328 20.066,-35.113 32.126,28.624 47.804,5.135 23.283,33.869 45.496,17.771 7.433,57.974 -49.163,50.609 -61.977,17.096 z m -39.796,-27.211 41.434,20.425 38.358,0.609 -13.855,-37.81 c -2.866,-0.043 -5.422,-1.354 -7.136,-3.398 v 0 z m 72.333,-19.12 14.465,39.469 48.076,-13.263 -61.996,-26.722 c -0.174,0.178 -0.355,0.351 -0.545,0.516 m 67.886,21.093 -34.355,-86.854 c -0.031,10e-4 -0.062,0.003 -0.093,0.003 v 0 c -0.52,0 -1.028,-0.043 -1.523,-0.123 v 0 l -30.757,52.781 c 1.309,1.629 2.094,3.696 2.094,5.945 v 0 c 0,0.13 -0.004,0.256 -0.011,0.382 v 0 z m 6.885,-1.11 41.8,-43.03 -76.356,-44.338 z m -191.845,-46.249 36.87,40.823 28.726,-83.25 c -1.163,-0.979 -2.086,-2.228 -2.673,-3.655 v 0 l -73.607,-0.417 z m 72.037,-40.207 -27.016,78.294 56.311,-19.317 c 0.078,-2.155 0.869,-4.127 2.148,-5.686 v 0 l -30.349,-53.388 c -0.359,0.054 -0.724,0.086 -1.094,0.097 m 40.31,49.942 30.757,-52.781 c -0.622,-0.775 -1.123,-1.647 -1.481,-2.591 v 0 l -61.168,-0.345 c -0.358,0.837 -0.832,1.615 -1.402,2.311 v 0 l 30.351,53.389 c 0.463,-0.07 0.937,-0.106 1.42,-0.106 v 0 c 0.52,0 1.028,0.044 1.523,0.123 m 47.618,-59.65 c 0.031,0.302 0.049,0.611 0.049,0.922 v 0 c 0,0.513 -0.043,1.016 -0.122,1.509 v 0 l 72.665,42.194 -5.41,-42.203 -40.448,-15.799 z m -79.844,-4.199 c 0.222,0.421 0.414,0.864 0.571,1.32 v 0 l 60.97,0.345 c 0.364,-0.932 0.869,-1.793 1.493,-2.556 v 0 l -24.525,-42.936 z m -89.187,0.812 71.827,0.407 c 0.006,-0.017 0.011,-0.033 0.016,-0.048 v 0 l -47.892,-41.579 z m 165.985,-2.706 24.123,-12.07 -20.273,-29.489 -36.308,-3.901 24.608,43.083 c 0.47,-0.071 0.953,-0.108 1.443,-0.108 v 0 c 2.468,0 4.718,0.942 6.407,2.485 m -89.675,-2.078 c 1.332,-0.711 2.851,-1.114 4.465,-1.114 v 0 c 1.16,0 2.269,0.209 3.296,0.587 v 0 l 38.761,-44.111 -27.342,-24.364 -17.962,31.43 -46.935,-2.121 z"
                 style="fill:#ffffff;stroke:none"
                 id="path8786" />
            </g>
          </g>
        </g>
      </g>
    </g>
  </g>
</svg>
