<?xml version="1.0" encoding="UTF-8" standalone="no"?>
<!-- Created with Inkscape (http://www.inkscape.org/) -->

<svg
   version="1.1"
   id="svg148"
   width="307.23904"
   height="250"
   viewBox="0 0 307.23904 250"
   sodipodi:docname="logomark.svg"
   inkscape:version="1.2.2 (732a01da63, 2022-12-09, custom)"
   xmlns:inkscape="http://www.inkscape.org/namespaces/inkscape"
   xmlns:sodipodi="http://sodipodi.sourceforge.net/DTD/sodipodi-0.dtd"
   xmlns="http://www.w3.org/2000/svg"
   xmlns:svg="http://www.w3.org/2000/svg">
  <defs
     id="defs152" />
  <sodipodi:namedview
     id="namedview150"
     pagecolor="#505050"
     bordercolor="#ffffff"
     borderopacity="1"
     inkscape:showpageshadow="0"
     inkscape:pageopacity="0"
     inkscape:pagecheckerboard="1"
     inkscape:deskcolor="#505050"
     showgrid="false"
     inkscape:zoom="0.52053723"
     inkscape:cx="958.62499"
     inkscape:cy="166.17447"
     inkscape:window-width="1360"
     inkscape:window-height="737"
     inkscape:window-x="0"
     inkscape:window-y="0"
     inkscape:window-maximized="1"
     inkscape:current-layer="g516" />
  <g
     id="g516"
     inkscape:groupmode="layer"
     inkscape:label="Page 4"
     transform="matrix(1.3333333,0,0,-1.3333333,-473.22284,860.172)">
    <g
       id="g558"
       transform="matrix(0.88828882,0,0,0.88828882,39.648367,72.068138)"
       style="fill:#ffffff">
      <g
         id="g560"
         style="fill:#ffffff">
        <g
           id="g566"
           style="fill:#ffffff">
          <g
             id="g568"
             style="fill:#ffffff">
            <path
               d="m 458.041,644.412 -50.736,-25.01 -40.045,-44.334 -12.343,-53.73 31.671,-54.503 51.529,2.328 20.066,-35.114 32.125,28.625 47.805,5.135 23.283,33.869 45.496,17.771 7.433,57.974 -49.164,50.61 -61.976,17.096 z m -39.797,-27.211 41.436,20.426 38.358,0.608 -13.856,-37.81 c -2.866,-0.043 -5.423,-1.354 -7.135,-3.397 v 0 z m 72.333,-19.12 14.464,39.47 48.077,-13.263 -61.995,-26.722 c -0.175,0.178 -0.357,0.351 -0.546,0.515 m 67.886,21.093 -34.354,-86.855 c -0.032,0.002 -0.062,0.005 -0.095,0.005 v 0 c -0.518,0 -1.025,-0.043 -1.522,-0.123 v 0 l -30.756,52.781 c 1.308,1.628 2.093,3.695 2.093,5.945 v 0 c 0,0.128 -0.003,0.256 -0.01,0.382 v 0 z m 6.886,-1.11 41.8,-43.031 -76.356,-44.336 z m -191.846,-46.249 36.871,40.823 28.725,-83.25 c -1.162,-0.978 -2.086,-2.228 -2.673,-3.655 v 0 l -73.605,-0.417 z m 72.037,-40.207 -27.015,78.294 56.311,-19.318 c 0.078,-2.153 0.869,-4.126 2.149,-5.685 v 0 L 446.634,531.51 c -0.358,0.055 -0.724,0.087 -1.094,0.098 m 40.312,49.941 30.755,-52.779 c -0.621,-0.775 -1.124,-1.647 -1.481,-2.592 v 0 l -61.167,-0.345 c -0.358,0.838 -0.832,1.616 -1.402,2.311 v 0 l 30.351,53.389 c 0.462,-0.069 0.936,-0.107 1.42,-0.107 v 0 c 0.519,0 1.028,0.044 1.524,0.123 m 47.618,-59.65 c 0.029,0.303 0.046,0.611 0.046,0.924 v 0 c 0,0.513 -0.042,1.016 -0.12,1.509 v 0 l 72.665,42.194 -5.412,-42.203 -40.446,-15.8 z m -79.845,-4.198 c 0.223,0.422 0.412,0.865 0.57,1.32 v 0 l 60.97,0.346 c 0.364,-0.933 0.87,-1.794 1.494,-2.556 v 0 l -24.526,-42.937 z m -89.187,0.812 71.825,0.406 c 0.007,-0.015 0.012,-0.032 0.017,-0.047 v 0 l -47.89,-41.579 z m 165.984,-2.707 24.125,-12.069 -20.274,-29.488 -36.309,-3.902 24.608,43.083 c 0.47,-0.071 0.954,-0.108 1.442,-0.108 v 0 c 2.47,0 4.72,0.942 6.408,2.484 m -89.674,-2.078 c 1.332,-0.71 2.85,-1.112 4.464,-1.112 v 0 c 1.159,0 2.271,0.208 3.297,0.586 v 0 l 38.76,-44.11 -27.342,-24.365 -17.96,31.43 -46.936,-2.121 z"
               style="fill:#ffffff;stroke:none"
               id="path576" />
          </g>
        </g>
      </g>
    </g>
  </g>
</svg>
